<svg width="256.83124999999995px" height="129.2px" xmlns="http://www.w3.org/2000/svg" viewBox="121.58437500000002 10.400000000000006 256.83124999999995 129.2" style="background: rgba(0, 0, 0, 0);" preserveAspectRatio="xMidYMid"><defs><linearGradient id="editing-gradient-gradient" x1="0" x2="1" y1="0.5" y2="0.5" gradientUnits="objectBoundingBox"><stop offset="0" stop-color="#7f8487"></stop><stop offset="1" stop-color="#5b8fb9"></stop></linearGradient></defs><g><g transform="translate(161.81001091003418, 97.53000068664551)"><path d="M57.86-44.93L57.86-44.93Q58.75-44.93 59.33-44.42L59.33-44.42L59.33-44.42Q59.90-43.90 59.90-43.01L59.90-43.01L59.78-42.18L45.63-1.22L45.63-1.22Q45.44-0.64 44.96-0.32L44.96-0.32L44.96-0.32Q44.48 0 43.90 0L43.90 0L43.90 0Q42.43 0 41.98-1.22L41.98-1.22L30.91-28.54L19.84-1.22L19.84-1.22Q19.26 0 17.92 0L17.92 0L17.92 0Q17.34 0 16.86-0.32L16.86-0.32L16.86-0.32Q16.38-0.64 16.26-1.22L16.26-1.22L2.11-42.18L2.11-42.18Q1.92-42.56 1.92-42.94L1.92-42.94L1.92-42.94Q1.92-43.84 2.59-44.38L2.59-44.38L2.59-44.38Q3.26-44.93 4.03-44.93L4.03-44.93L4.03-44.93Q4.67-44.93 5.18-44.61L5.18-44.61L5.18-44.61Q5.70-44.29 5.89-43.71L5.89-43.71L18.43-7.10L29.18-33.92L29.18-33.92Q29.76-35.20 30.98-35.14L30.98-35.14L30.98-35.14Q31.62-35.20 32.10-34.85L32.10-34.85L32.10-34.85Q32.58-34.50 32.83-33.92L32.83-33.92L43.52-7.10L55.94-43.71L55.94-43.71Q56.45-44.93 57.86-44.93L57.86-44.93ZM93.25-3.78L93.25-3.78Q94.08-3.78 94.62-3.20L94.62-3.20L94.62-3.20Q95.17-2.62 95.17-1.86L95.17-1.86L95.17-1.86Q95.17-1.02 94.62-0.51L94.62-0.51L94.62-0.51Q94.08 0 93.25 0L93.25 0L69.76 0L69.76 0Q68.93 0 68.38-0.54L68.38-0.54L68.38-0.54Q67.84-1.09 67.84-1.92L67.84-1.92L67.84-42.88L67.84-42.88Q67.84-43.71 68.38-44.26L68.38-44.26L68.38-44.26Q68.93-44.80 69.76-44.80L69.76-44.80L93.25-44.80L93.25-44.80Q94.08-44.80 94.62-44.26L94.62-44.26L94.62-44.26Q95.17-43.71 95.17-42.88L95.17-42.88L95.17-42.88Q95.17-42.05 94.62-41.54L94.62-41.54L94.62-41.54Q94.08-41.02 93.25-41.02L93.25-41.02L71.87-41.02L71.87-24.96L90.37-24.96L90.37-24.96Q91.20-24.96 91.74-24.42L91.74-24.42L91.74-24.42Q92.29-23.87 92.29-23.04L92.29-23.04L92.29-23.04Q92.29-22.21 91.74-21.70L91.74-21.70L91.74-21.70Q91.20-21.18 90.37-21.18L90.37-21.18L71.87-21.18L71.87-3.78L93.25-3.78ZM128.13-23.81L128.13-23.81Q131.97-22.85 134.40-19.97L134.40-19.97L134.40-19.97Q136.83-17.09 136.83-12.48L136.83-12.48L136.83-12.48Q136.83-6.21 132.96-3.10L132.96-3.10L132.96-3.10Q129.09 0 123.33 0L123.33 0L106.11 0L106.11 0Q105.28 0 104.74-0.54L104.74-0.54L104.74-0.54Q104.19-1.09 104.19-1.92L104.19-1.92L104.19-42.88L104.19-42.88Q104.19-43.71 104.74-44.26L104.74-44.26L104.74-44.26Q105.28-44.80 106.11-44.80L106.11-44.80L123.07-44.80L123.07-44.80Q128.45-44.80 131.49-41.86L131.49-41.86L131.49-41.86Q134.53-38.91 134.53-33.79L134.53-33.79L134.53-33.79Q134.53-30.40 132.86-27.71L132.86-27.71L132.86-27.71Q131.20-25.02 128.13-23.81L128.13-23.81ZM130.43-33.47L130.43-33.47Q130.43-36.99 128.35-39.01L128.35-39.01L128.35-39.01Q126.27-41.02 122.56-41.02L122.56-41.02L108.29-41.02L108.29-25.02L122.56-25.02L122.56-25.02Q126.02-25.09 128.22-27.26L128.22-27.26L128.22-27.26Q130.43-29.44 130.43-33.47L130.43-33.47ZM123.14-3.78L123.14-3.78Q127.42-3.78 130.08-5.95L130.08-5.95L130.08-5.95Q132.74-8.13 132.74-12.48L132.74-12.48L132.74-12.48Q132.74-16.96 130.02-19.07L130.02-19.07L130.02-19.07Q127.30-21.18 123.01-21.18L123.01-21.18L108.29-21.18L108.29-3.78L123.14-3.78ZM174.46-43.14L174.46-43.14Q174.46-42.69 174.08-41.92L174.08-41.92L159.81-22.27L159.81-1.92L159.81-1.92Q159.81-1.09 159.23-0.54L159.23-0.54L159.23-0.54Q158.66 0 157.82 0L157.82 0L157.82 0Q156.99 0 156.45-0.54L156.45-0.54L156.45-0.54Q155.90-1.09 155.90-1.92L155.90-1.92L155.90-22.21L141.57-41.79L141.57-41.79Q141.06-42.37 141.06-43.14L141.06-43.14L141.06-43.14Q141.06-43.90 141.70-44.48L141.70-44.48L141.70-44.48Q142.34-45.06 143.10-45.06L143.10-45.06L143.10-45.06Q144.13-45.06 144.70-44.16L144.70-44.16L157.95-26.11L170.88-44.16L170.88-44.16Q171.58-45.06 172.54-45.06L172.54-45.06L172.54-45.06Q173.31-45.06 173.89-44.45L173.89-44.45L173.89-44.45Q174.46-43.84 174.46-43.14L174.46-43.14Z" fill="url(#editing-gradient-gradient)"></path></g></g><style>text {
  font-size: 64px;
  font-family: Arial Black;
  dominant-baseline: central;
  text-anchor: middle;
}</style></svg>